<svg height="684pt" viewBox="-21 -52 684.51005 684" width="684pt" xmlns="http://www.w3.org/2000/svg" ><path d="m426.136719 371.882812h-18.742188v-18.742187h18.742188zm-31.234375 0h-18.742188v-18.742187h18.742188zm0 0"/><path d="m329.203125 458.675781h63.246094v44.414063l-14.128907 14.128906h-49.117187v61.898438h82.597656l60.425781-60.425782v-145.25h-18.742187v137.492188l-49.445313 49.441406h-56.097656v-24.417969h38.140625l25.109375-25.101562v-70.921875h-63.25v-105.535156h105.542969v14.054687h18.742187v-32.796875h-143.023437zm0 0"/><path d="m498.789062 315.65625v143.019531h63.246094v44.414063l-14.125 14.128906h-49.121094v61.898438h82.601563l60.421875-60.421876v-203.039062zm124.285157 195.277344-49.449219 49.441406h-56.09375v-24.417969h38.144531l25.105469-25.109375v-70.914062h-63.25v-105.535156h105.542969zm0 0"/><path d="m169.675781 58.625v203.042969h143.019531v-143.027344h-63.242187v-44.410156l14.125-14.128907h49.117187v-61.898437h-82.597656zm124.277344-41.683594v24.417969h-38.136719l-25.105468 25.109375v70.917969h63.242187v105.539062h-105.535156v-176.535156l49.441406-49.445313h56.09375zm0 0"/><path d="m.0820312 58.625v203.042969h143.0234378v-67.429688h-18.742188v48.6875h-105.539062v-176.535156l49.445312-49.449219h56.09375v24.417969h-38.136719l-25.109374 25.109375v70.914062h63.246093v31.867188h18.742188v-50.609375h-63.246094v-44.410156l14.128906-14.128907h49.117188v-61.898437h-82.601563zm0 0"/></svg>